<svg xmlns="http://www.w3.org/2000/svg">
  <symbol viewBox="0 0 19 14" id="arrow-left">
    <path d="M6.3871.2097c.3923-.305.9595-.2773 1.32.0832l.0832.0942c.305.3923.2773.9595-.0832 1.32L3.415 6H18c.5523 0 1 .4477 1 1 0 .5128-.386.9355-.8834.9933L18 8H3.415l4.2921 4.2929.0832.0942c.305.3923.2773.9595-.0832 1.32-.3905.3905-1.0237.3905-1.4142 0l-6-6-.0732-.0817a1.0046 1.0046 0 01-.1485-.254.9878.9878 0 01-.0672-.2816A1.0336 1.0336 0 010 7l.0002-.0184a1.0059 1.0059 0 01.0038-.0709L0 7a1.008 1.008 0 01.0357-.2658.9492.9492 0 01.058-.1574 1.0178 1.0178 0 01.1026-.172.9987.9987 0 01.0966-.112l-.0801.0904a1.0057 1.0057 0 01.08-.0903l6-6z" fill="#FFF" fill-rule="nonzero" />
  </symbol>
  <symbol viewBox="0 0 24 14" id="arrow-right">
    <path d="M17.6129.2097l.0942.0832 6 6c.3605.3605.3882.9277.0832 1.32l-.0832.0942-6 6c-.3905.3905-1.0237.3905-1.4142 0-.3605-.3605-.3882-.9277-.0832-1.32l.0832-.0942L20.585 8H1c-.5523 0-1-.4477-1-1 0-.5128.386-.9355.8834-.9933L1 6h19.585l-4.2921-4.2929c-.3605-.3605-.3882-.9277-.0832-1.32l.0832-.0942c.3605-.3605.9277-.3882 1.32-.0832z" fill-rule="nonzero" />
  </symbol>
  <symbol viewBox="0 0 10 6" id="caret-down">
    <path d="M8.3134.273c.4015-.3792 1.0344-.3611 1.4136.0404.35.3706.3616.9384.0455 1.3218l-.0859.0918-4.2353 4c-.371.3505-.9397.3615-1.323.0445l-.0918-.0861-3.7647-4C-.1067 1.2832-.0875.6504.3146.2718c.3713-.3494.939-.36 1.322-.0432l.0916.086L4.806 3.585 8.3134.273z" fill-rule="nonzero" />
  </symbol>
  <symbol viewBox="0 0 20 20" id="close">
    <path d="M1.6129.2097l.0942.0832L10 8.585 18.2929.2929c.3905-.3905 1.0237-.3905 1.4142 0 .3605.3605.3882.9277.0832 1.32l-.0832.0942L11.415 10l8.2921 8.2929c.3905.3905.3905 1.0237 0 1.4142-.3605.3605-.9277.3882-1.32.0832l-.0942-.0832L10 11.415l-8.2929 8.2921c-.3905.3905-1.0237.3905-1.4142 0-.3605-.3605-.3882-.9277-.0832-1.32l.0832-.0942L8.585 10 .2929 1.7071C-.0976 1.3166-.0976.6834.2929.293c.3605-.3605.9277-.3882 1.32-.0832z" fill-rule="nonzero" />
  </symbol>
  <symbol viewBox="0 0 24 24" id="handset">
    <path d="M16.943 12.4116l-.1127-.0378a1.0001 1.0001 0 00-1.1554.5197l-.8166 1.6385-.2802-.08c-1.2987-.3956-2.3543-1.0075-3.18-1.8332l-.202-.2113c-.7242-.792-1.2686-1.7783-1.6312-2.9687l-.0806-.2808 1.6391-.816a1 1 0 00.4819-1.268L9.4915 1.815A2 2 0 007.6405.561L2.406.5487C1.3014.5463.4039 1.4396.4013 2.5442c0 .0977.0068.1953.0208.292.9787 6.74 2.9774 11.6509 6.0426 14.716 3.0651 3.0652 7.9759 5.0638 14.716 6.0426 1.093.1587 2.1079-.5988 2.2666-1.6919a2.0319 2.0319 0 00.0207-.292l-.012-5.2345a2 2 0 00-1.2542-1.851l-5.2589-2.1138zm.1102 2.1996l4.4028 1.7699.012 5.2344c-6.351-.9222-10.8752-2.7636-13.5891-5.4775C5.2448 13.5039 3.4327 9.1644 2.485 3.1045l-.0838-.5557 5.2345.0121 1.7693 4.4022-1.5225.7591a1 1 0 00-.5342 1.0933c.4337 2.1449 1.3106 3.8926 2.6355 5.2175 1.325 1.3249 3.0726 2.2017 5.2175 2.6355l.1208.0169c.402.0314.7891-.1831.9725-.5511l.7585-1.5231z" fill-rule="nonzero" />
  </symbol>
  <symbol viewBox="0 0 24 24" id="launch">
    <path d="M11 2c.5523 0 1 .4477 1 1 0 .5128-.386.9355-.8834.9933L11 4H4v16h16v-7c0-.5128.386-.9355.8834-.9933L21 12c.5128 0 .9355.386.9933.8834L22 13v8c0 .5128-.386.9355-.8834.9933L21 22H3c-.5128 0-.9355-.386-.9933-.8834L2 21V3c0-.5128.386-.9355.8834-.9933L3 2h8zm10 0c.5128 0 .9355.386.9933.8834L22 3v5c0 .5523-.4477 1-1 1-.5128 0-.9355-.386-.9933-.8834L20 8V4h-4c-.5128 0-.9355-.386-.9933-.8834L15 3c0-.5128.386-.9355.8834-.9933L16 2h5zm-.7071.2929c.3905-.3905 1.0237-.3905 1.4142 0 .3605.3605.3882.9277.0832 1.32l-.0832.0942-9 9c-.3905.3905-1.0237.3905-1.4142 0-.3605-.3605-.3882-.9277-.0832-1.32l.0832-.0942 9-9z" fill-rule="nonzero" />
  </symbol>
  <symbol viewBox="0 0 25 16" id="menu">
    <path d="M24 14c.5523 0 1 .4477 1 1 0 .5128-.386.9355-.8834.9933L24 16H1c-.5523 0-1-.4477-1-1 0-.5128.386-.9355.8834-.9933L1 14h23zm0-7c.5523 0 1 .4477 1 1 0 .5128-.386.9355-.8834.9933L24 9H1c-.5523 0-1-.4477-1-1 0-.5128.386-.9355.8834-.9933L1 7h23zm0-7c.5523 0 1 .4477 1 1 0 .5128-.386.9355-.8834.9933L24 2H1c-.5523 0-1-.4477-1-1C0 .4872.386.0645.8834.0067L1 0h23z" fill-rule="nonzero" />
  </symbol>
</svg>