<svg viewBox="0 0 14 24">
  <path d="M7 0c.5128 0 .9355.386.9933.8834L8 1v19.585l4.2929-4.2921c.3605-.3605.9277-.3882 1.32-.0832l.0942.0832c.3605.3605.3882.9277.0832 1.32l-.0832.0942-6 6a1.0057 1.0057 0 01-.0903.0801l.0903-.08a1.0082 1.0082 0 01-.223.1681 1.0446 1.0446 0 01-.1128.0535.9877.9877 0 01-.2855.0676A1.052 1.052 0 017 24l-.0323-.0005a1.0057 1.0057 0 01-.054-.0032L7 24a1.008 1.008 0 01-.2658-.0357 1.1116 1.1116 0 01-.1053-.0354 1.005 1.005 0 01-.1496-.0749 1.0353 1.0353 0 01-.0922-.0637 1.0373 1.0373 0 01-.0942-.0832l-6-6c-.3905-.3905-.3905-1.0237 0-1.4142.3605-.3605.9277-.3882 1.32-.0832l.0942.0832L6 20.585V1c0-.5523.4477-1 1-1z" fill="#40BAC1" fill-rule="nonzero"/>
</svg>
