<svg viewBox="0 0 32 14">
  <path d="M25.6129.2097l.0942.0832 6 6c.0285.0285.0552.0586.0801.0903l-.08-.0903a1.0082 1.0082 0 01.1681.223 1.0446 1.0446 0 01.0535.1128.9877.9877 0 01.0675.2842A1.0514 1.0514 0 0132 7l-.0005.0332a1.0059 1.0059 0 01-.0031.052L32 7a1.008 1.008 0 01-.0357.2658 1.1116 1.1116 0 01-.0354.1053 1.005 1.005 0 01-.0749.1496 1.0353 1.0353 0 01-.0737.1047l-.0732.0817-6 6c-.3905.3905-1.0237.3905-1.4142 0-.3605-.3605-.3882-.9277-.0832-1.32l.0832-.0942L28.584 8H1c-.5523 0-1-.4477-1-1 0-.5128.386-.9355.8834-.9933L1 6h27.584l-4.2911-4.2929c-.3605-.3605-.3882-.9277-.0832-1.32l.0832-.0942c.3605-.3605.9277-.3882 1.32-.0832z" fill="#40BAC1" fill-rule="nonzero"/>
</svg>
