<svg width="24" height="24" xmlns="http://www.w3.org/2000/svg"><path d="M16.653 0A7.369 7.369 0 0124 7.347v9.306A7.369 7.369 0 0116.653 24H7.347A7.369 7.369 0 010 16.653V7.347A7.369 7.369 0 017.347 0zm0 1.96H7.347a5.388 5.388 0 00-5.388 5.387v9.306a5.388 5.388 0 005.388 5.388h9.306a5.388 5.388 0 005.388-5.388V7.347a5.388 5.388 0 00-5.388-5.388zm-4.587 3.788a6.289 6.289 0 11.025 12.578 6.289 6.289 0 01-.025-12.578zm0 1.959a4.33 4.33 0 10.005 8.66 4.33 4.33 0 00-.005-8.66zm6.336-3.544a1.403 1.403 0 110 2.807 1.403 1.403 0 010-2.807z" fill="#FFF" fill-rule="nonzero"/></svg>