<svg viewBox="0 0 19 14">
  <path d="M6.3871.2097c.3923-.305.9595-.2773 1.32.0832l.0832.0942c.305.3923.2773.9595-.0832 1.32L3.415 6H18c.5523 0 1 .4477 1 1 0 .5128-.386.9355-.8834.9933L18 8H3.415l4.2921 4.2929.0832.0942c.305.3923.2773.9595-.0832 1.32-.3905.3905-1.0237.3905-1.4142 0l-6-6-.0732-.0817a1.0046 1.0046 0 01-.1485-.254.9878.9878 0 01-.0672-.2816A1.0336 1.0336 0 010 7l.0002-.0184a1.0059 1.0059 0 01.0038-.0709L0 7a1.008 1.008 0 01.0357-.2658.9492.9492 0 01.058-.1574 1.0178 1.0178 0 01.1026-.172.9987.9987 0 01.0966-.112l-.0801.0904a1.0057 1.0057 0 01.08-.0903l6-6z" fill="#FFF" fill-rule="nonzero"/>
</svg>
