<svg viewBox="0 0 24 24">
  <path d="M16.943 12.4116l-.1127-.0378a1.0001 1.0001 0 00-1.1554.5197l-.8166 1.6385-.2802-.08c-1.2987-.3956-2.3543-1.0075-3.18-1.8332l-.202-.2113c-.7242-.792-1.2686-1.7783-1.6312-2.9687l-.0806-.2808 1.6391-.816a1 1 0 00.4819-1.268L9.4915 1.815A2 2 0 007.6405.561L2.406.5487C1.3014.5463.4039 1.4396.4013 2.5442c0 .0977.0068.1953.0208.292.9787 6.74 2.9774 11.6509 6.0426 14.716 3.0651 3.0652 7.9759 5.0638 14.716 6.0426 1.093.1587 2.1079-.5988 2.2666-1.6919a2.0319 2.0319 0 00.0207-.292l-.012-5.2345a2 2 0 00-1.2542-1.851l-5.2589-2.1138zm.1102 2.1996l4.4028 1.7699.012 5.2344c-6.351-.9222-10.8752-2.7636-13.5891-5.4775C5.2448 13.5039 3.4327 9.1644 2.485 3.1045l-.0838-.5557 5.2345.0121 1.7693 4.4022-1.5225.7591a1 1 0 00-.5342 1.0933c.4337 2.1449 1.3106 3.8926 2.6355 5.2175 1.325 1.3249 3.0726 2.2017 5.2175 2.6355l.1208.0169c.402.0314.7891-.1831.9725-.5511l.7585-1.5231z" fill-rule="nonzero"/>
</svg>
