<svg viewBox="0 0 24 24">
  <path d="M11 2c.5523 0 1 .4477 1 1 0 .5128-.386.9355-.8834.9933L11 4H4v16h16v-7c0-.5128.386-.9355.8834-.9933L21 12c.5128 0 .9355.386.9933.8834L22 13v8c0 .5128-.386.9355-.8834.9933L21 22H3c-.5128 0-.9355-.386-.9933-.8834L2 21V3c0-.5128.386-.9355.8834-.9933L3 2h8zm10 0c.5128 0 .9355.386.9933.8834L22 3v5c0 .5523-.4477 1-1 1-.5128 0-.9355-.386-.9933-.8834L20 8V4h-4c-.5128 0-.9355-.386-.9933-.8834L15 3c0-.5128.386-.9355.8834-.9933L16 2h5zm-.7071.2929c.3905-.3905 1.0237-.3905 1.4142 0 .3605.3605.3882.9277.0832 1.32l-.0832.0942-9 9c-.3905.3905-1.0237.3905-1.4142 0-.3605-.3605-.3882-.9277-.0832-1.32l.0832-.0942 9-9z" fill-rule="nonzero"/>
</svg>
